<svg xmlns="http://www.w3.org/2000/svg" width="1103" height="1023.791" viewBox="0 0 1103 1023.791">
  <g id="Group_278" data-name="Group 278" transform="translate(-409 -312.209)">
    <rect id="Rectangle_179" data-name="Rectangle 179" width="1103" height="592" transform="translate(409 744)" fill="#0c193b"/>
    <ellipse id="Ellipse_65" data-name="Ellipse 65" cx="551.5" cy="150.5" rx="551.5" ry="150.5" transform="translate(409 594)" fill="#1f3264"/>
    <g id="Ellipse_66" data-name="Ellipse 66" transform="translate(476 631)" fill="none" stroke="#fcfcfc" stroke-width="5">
      <ellipse cx="484" cy="105" rx="484" ry="105" stroke="none"/>
      <ellipse cx="484" cy="105" rx="481.5" ry="102.5" fill="none"/>
    </g>
    <ellipse id="Ellipse_69" data-name="Ellipse 69" cx="79" cy="25.5" rx="79" ry="25.5" transform="translate(881 710)" fill="#0c193b"/>
    <g id="Group_277" data-name="Group 277" transform="translate(0 -23.5)">
      <rect id="Rectangle_180" data-name="Rectangle 180" width="158" height="37" transform="translate(881 504)" fill="#0c193b"/>
      <rect id="Rectangle_181" data-name="Rectangle 181" width="19" height="250" transform="translate(951 509)" fill="#a9d3d0"/>
      <ellipse id="Ellipse_80" data-name="Ellipse 80" cx="79" cy="25.5" rx="79" ry="25.5" transform="translate(881 515)" fill="#0c193b"/>
      <ellipse id="Ellipse_79" data-name="Ellipse 79" cx="79" cy="25.5" rx="79" ry="25.5" transform="translate(881 478)" fill="#a9d3d0"/>
    </g>
    <g id="Layer_2" data-name="Layer 2" transform="translate(886.568 312.209)">
      <g id="Layer_1" data-name="Layer 1" transform="translate(0 0)">
        <g id="Layer_2-2" data-name="Layer 2">
          <g id="Layer_1-2" data-name="Layer 1">
            <path id="Rectangle_4" data-name="Rectangle 4" d="M949.34,746.381h0a3.647,3.647,0,0,1,3.646,3.647v14.986a3.646,3.646,0,0,1-3.646,3.647h0a3.646,3.646,0,0,1-3.646-3.647V750.028A3.647,3.647,0,0,1,949.34,746.381Z" transform="translate(-879.449 -600.549)" fill="#d3a084"/>
            <path id="Path_1" data-name="Path 1" d="M945.694,779.34v1.77a2.71,2.71,0,0,0,2.7,2.7h1.885a2.714,2.714,0,0,0,2.706-2.7v-1.728Z" transform="translate(-879.449 -615.703)" fill="#1b3041"/>
            <path id="Rectangle_5" data-name="Rectangle 5" d="M968.545,746.381h0a3.646,3.646,0,0,1,3.646,3.647v14.986a3.646,3.646,0,0,1-3.646,3.647h0a3.646,3.646,0,0,1-3.646-3.647V750.028A3.647,3.647,0,0,1,968.545,746.381Z" transform="translate(-888.28 -600.549)" fill="#d3a084"/>
            <path id="Path_2" data-name="Path 2" d="M959.589,614.1c-.513.154-1.036.295-1.554.414a28.166,28.166,0,0,1-6.294.576c-2.1-.021-4.247-.48-6.336-.414-3.895.108-7.873-.616-11.709.414-2.093.572-4.031,1.612-6.125,2.171-6.547,1.752-13.3-1.38-20.045-2.093a28.3,28.3,0,0,0-14.12,2.142,42.883,42.883,0,0,1-5.954,2.486c-6.761,1.785-13.553-2.349-20.489-3.269a36.666,36.666,0,0,0-9.406.22,21.56,21.56,0,0,1-5.875.381,16.64,16.64,0,0,0-5.319.365c-4.558.754-9.336,1.073-13.785-.414-6.027-1.96-11.059-8.47-9.076-14.509,1.242-3.808,4.906-6.553,5.751-10.47,1.243-5.689-3.912-10.948-3.957-16.772a16.617,16.617,0,0,1,2.213-7.492c1.242-2.486,2.354-4.91,3.376-7.483.759-1.914.058-3.629-.34-5.594-.439-2.295-.853-4.6-1.11-6.932a32.365,32.365,0,0,1,1.1-13.639c.655-1.968,1.562-3.841,2.342-5.763a11.8,11.8,0,0,1,.609-1.363,7.1,7.1,0,0,0,.68-1.277,28.585,28.585,0,0,0,.616-4.927,40.714,40.714,0,0,1,2.445-10.1l.037-.1A45.754,45.754,0,0,1,841.522,503c3.392-5.151,7.209-10.147,12.07-14a33.713,33.713,0,0,1,2.93-2.072,14.56,14.56,0,0,0,2.8-1.839c1.761-1.782,4.5-2.809,6.767-3.817a54.984,54.984,0,0,1,21.931-4.844,58.048,58.048,0,0,1,9.868.642q2.764.452,5.486,1.177a20.416,20.416,0,0,1,5.66,1.964c3.7.042,7.259-.257,10.955.344a42.262,42.262,0,0,1,10.3,3.078A43.277,43.277,0,0,1,947.116,496.8c1.85,2.416,3.862,5.217,4.626,8.184a20.159,20.159,0,0,0,1.28,2.9,51.338,51.338,0,0,1,2.362,6.376,51.912,51.912,0,0,1,2.13,13.4v.274c.063,3.161-.161,6.369.588,9.435.978,4.009,3.555,7.521,4.314,11.573,1.127,6.008-1.79,11.8-3.05,17.527a17.327,17.327,0,0,0-.414,7.155,5.009,5.009,0,0,1,.186,1.45,11.363,11.363,0,0,0,2.544,7.31c1.774,2.39,4.015,4.429,5.551,6.978a20.423,20.423,0,0,1,2.614,9,16.507,16.507,0,0,1-1.4,8.909A14.546,14.546,0,0,1,959.589,614.1Z" transform="translate(-823.063 -476.419)" fill="#1b3041"/>
            <rect id="Rectangle_6" data-name="Rectangle 6" width="8.39" height="8.992" transform="translate(70.864 114.313)" fill="#cc997f"/>
            <rect id="Rectangle_7" data-name="Rectangle 7" width="17.568" height="17.568" rx="5.709" transform="translate(66.368 122.405)" fill="#cc997f"/>
            <path id="Path_3" data-name="Path 3" d="M963.476,720.787H944.366V704.756c0-.049-.054-.049-.029-.091a3.368,3.368,0,0,1,2.375-1.682,8.031,8.031,0,0,0,12.277,2.544,4.979,4.979,0,0,0,1.773-2.635,4.081,4.081,0,0,1,2.59,1.242Z" transform="translate(-878.823 -580.552)" fill="#e1e9ea"/>
            <path id="Path_4" data-name="Path 4" d="M875.305,523.39h91.259v73.34a17.933,17.933,0,0,1-17.933,17.933H893.238a17.933,17.933,0,0,1-17.933-17.933h0Z" transform="translate(-847.085 -498.016)" fill="#d3a084"/>
            <path id="Path_5" data-name="Path 5" d="M962.969,572.059c-.3-7.657-.588-15.43,1.173-22.889.969-4.1,2.548-8.055,3.294-12.206a40.579,40.579,0,0,0-.621-15.8,24.442,24.442,0,0,0-3.729-9.261c-4.321-5.978-12.15-8.088-19.4-9.442A256.382,256.382,0,0,0,896.7,498.3c-8.154,0-16.715.455-23.7,4.673a16.683,16.683,0,0,0-7.533,8.789,25.027,25.027,0,0,0-.883,6.784l-.733,19.225a98.554,98.554,0,0,0,.211,15.331c.684,5.8,2.4,11.477,3.024,17.3-1.085-2.552,1.094-5.345,3.47-6.774s5.229-2.37,6.8-4.633c2.142-3.1,1.144-7.608,3.286-10.707,3.315-4.823,11.283-2.9,15.915-6.485,3.944-3.054,4.189-9.008,7.363-12.845,2.113-2.569,5.333-3.949,8.495-4.972s6.46-1.85,9.261-3.646,5.08-4.869,4.844-8.188c1.619,5.011,4.078,10.583,8.568,13.325,1.55.944,3.348,1.525,4.674,2.764,3.534,3.315,2.071,9.427,4.653,13.529,1.868,2.975,5.64,4.5,7.077,7.715,1.57,3.509-.091,8.167,2.382,11.112,1.4,1.657,3.729,2.236,5.387,3.659C961.54,566.171,962.476,569.1,962.969,572.059Z" transform="translate(-841.724 -486.48)" fill="#1b3041"/>
            <ellipse id="Ellipse_1" data-name="Ellipse 1" cx="3.071" cy="3.071" rx="3.071" ry="3.071" transform="translate(44.761 80.051)" fill="#1b3041"/>
            <ellipse id="Ellipse_2" data-name="Ellipse 2" cx="3.071" cy="3.071" rx="3.071" ry="3.071" transform="translate(97.644 80.051)" fill="#1b3041"/>
            <rect id="Rectangle_8" data-name="Rectangle 8" width="21.778" height="5.097" rx="2.548" transform="matrix(0.418, -0.908, 0.908, 0.418, 54.58, 144.037)" fill="#cc997f"/>
            <path id="Path_6" data-name="Path 6" d="M952.874,653.747a8.672,8.672,0,0,0,9.145.245" transform="translate(-882.751 -557.955)" fill="none" stroke="#1b3041" stroke-linecap="round" stroke-miterlimit="10" stroke-width="1.5"/>
            <path id="Path_7" data-name="Path 7" d="M942.237,708.755l-1.4-5.519a1.789,1.789,0,0,0-.319.021,8.139,8.139,0,0,0-2.677.725l-.356.178a.65.65,0,0,0-.344.183,11.418,11.418,0,0,0-1.464,1.724,15.091,15.091,0,0,0-1.157,1.969l-.112.231a36,36,0,0,0-2.039,6.029,53.18,53.18,0,0,0,5.171,2.8.315.315,0,0,0,.182.049.356.356,0,0,0,.231-.149l3.079-3.382a1.248,1.248,0,0,0,.256-.373,1.09,1.09,0,0,0,0-.518c-.024-.129-.049-.257-.082-.386.2-.294.414-.593.584-.891a3.5,3.5,0,0,0,.617-1.471A3.72,3.72,0,0,0,942.237,708.755Z" transform="translate(-873.321 -580.71)" fill="#e1e9ea"/>
            <rect id="Rectangle_9" data-name="Rectangle 9" width="5.097" height="21.778" rx="2.548" transform="translate(81.595 126.382) rotate(-24.71)" fill="#cc997f"/>
            <path id="Path_8" data-name="Path 8" d="M972.867,708.755l1.4-5.519a1.791,1.791,0,0,1,.319.021,8.113,8.113,0,0,1,2.673.725l.361.178a.647.647,0,0,1,.344.183,11.426,11.426,0,0,1,1.465,1.724,15.173,15.173,0,0,1,1.156,1.969l.111.231a35.949,35.949,0,0,1,2.039,6.029,53.225,53.225,0,0,1-5.163,2.8.314.314,0,0,1-.182.049.359.359,0,0,1-.231-.149l-3.083-3.385a1.153,1.153,0,0,1-.257-.373,1.037,1.037,0,0,1,0-.519c.025-.128.05-.256.083-.385-.2-.294-.394-.593-.584-.891a3.459,3.459,0,0,1-.616-1.471A3.71,3.71,0,0,1,972.867,708.755Z" transform="translate(-891.868 -580.71)" fill="#e1e9ea"/>
            <rect id="Rectangle_10" data-name="Rectangle 10" width="9.066" height="21.658" transform="translate(65.544 140.23)" fill="#204089"/>
            <rect id="Rectangle_11" data-name="Rectangle 11" width="9.066" height="21.658" transform="translate(75.546 140.23)" fill="#204089"/>
            <rect id="Rectangle_12" data-name="Rectangle 12" width="19.106" height="8.217" transform="translate(65.544 140.23)" fill="#204089"/>
            <rect id="Rectangle_13" data-name="Rectangle 13" width="9.89" height="5.097" transform="translate(64.943 157.243)" fill="#163063"/>
            <rect id="Rectangle_14" data-name="Rectangle 14" width="9.89" height="5.097" transform="translate(75.322 157.243)" fill="#163063"/>
            <path id="Path_9" data-name="Path 9" d="M964.9,779.34v1.77a2.714,2.714,0,0,0,2.706,2.7h1.885a2.71,2.71,0,0,0,2.7-2.7v-1.728Z" transform="translate(-888.28 -615.703)" fill="#1b3041"/>
            <path id="Path_10" data-name="Path 10" d="M952.786,784.432a2.4,2.4,0,0,0-.664-.434,6.828,6.828,0,0,0-6,.077,2.411,2.411,0,0,0,1.586,1.513,6.254,6.254,0,0,0,2.275.223,4.935,4.935,0,0,0,.7-.058,4.365,4.365,0,0,0,1.281-.48A1.74,1.74,0,0,0,952.786,784.432Z" transform="translate(-879.647 -617.544)" fill="#e1e9ea"/>
            <path id="Path_11" data-name="Path 11" d="M948.408,782.132a3.884,3.884,0,0,1,4.094.166" transform="translate(-880.698 -616.755)" fill="#e1e9ea"/>
            <path id="Path_12" data-name="Path 12" d="M948.433,778.033a.614.614,0,0,1,.132-.54.96.96,0,0,1,.593-.166,16.653,16.653,0,0,1,3.045.128.559.559,0,0,1,.2.05.413.413,0,0,1,.182.414v.576a.281.281,0,0,1-.1.261.435.435,0,0,1-.22.045c-.986.025-1.968.025-2.954,0a3.632,3.632,0,0,1-.667-.062c-.077,0-.166-.025-.178-.1a2.151,2.151,0,0,1,0-.278Z" transform="translate(-880.702 -614.769)" fill="#1b3041"/>
            <path id="Path_13" data-name="Path 13" d="M948.408,780.4a3.881,3.881,0,0,1,4.094.166" transform="translate(-880.698 -615.959)" fill="#e1e9ea"/>
            <path id="Path_14" data-name="Path 14" d="M971.961,784.432A2.444,2.444,0,0,0,971.3,784a6.825,6.825,0,0,0-6,.077,2.409,2.409,0,0,0,1.587,1.513,6.25,6.25,0,0,0,2.275.224,4.972,4.972,0,0,0,.7-.058,4.343,4.343,0,0,0,1.28-.48,1.757,1.757,0,0,0,.817-.837Z" transform="translate(-888.464 -617.543)" fill="#e1e9ea"/>
            <path id="Path_15" data-name="Path 15" d="M967.583,782.132a3.885,3.885,0,0,1,4.094.166" transform="translate(-889.514 -616.755)" fill="#e1e9ea"/>
            <path id="Path_16" data-name="Path 16" d="M967.609,778.033a.619.619,0,0,1,.132-.54.962.962,0,0,1,.593-.166,16.653,16.653,0,0,1,3.045.128.565.565,0,0,1,.2.05.413.413,0,0,1,.181.414v.576a.281.281,0,0,1-.1.261.434.434,0,0,1-.219.045c-.986.025-1.968.025-2.954,0a3.634,3.634,0,0,1-.667-.062c-.077,0-.166-.025-.178-.1a2.219,2.219,0,0,1,0-.278Z" transform="translate(-889.519 -614.769)" fill="#1b3041"/>
            <path id="Path_17" data-name="Path 17" d="M967.583,780.4a3.882,3.882,0,0,1,4.094.166" transform="translate(-889.514 -615.959)" fill="#e1e9ea"/>
          </g>
        </g>
      </g>
    </g>
  </g>
</svg>
